# xmcd
#
# Track frame offsets:
#	182
#	12175
#	23242
#	37812
#	50172
#	63032
#	79672
#	94210
#	107760
#	119942
#	135077
#	149325
#	164940
#	177550
#	191832
#	206695
#	217457
#	230700
#	240497
#	254382
#	266192
#	278322
#
# Disc length: 3895 seconds
#
# Revision: 2
# Processed by: cddbd v1.5.2PL0 Copyright (c) Steve Scherf et al.
# Submitted via: VUPlayer 2.49
#
DISCID=500f3516
DTITLE=Bert Kaempfert and his Orchestra - The Silver Collection
DYEAR=1979
DGENRE=Orchestra
TTITLE0=Spanish Eyes =1966=
TTITLE1=Afrikaan Beat =1962=
TTITLE2=Wonderland By Night =1961=
TTITLE3=Why Can't You And I Add Up To Love =1974=
TTITLE4=Manhattan Merengue =1973=
TTITLE5=Feelings =1976=
TTITLE6=Hold Back Tomorrow =1976=
TTITLE7=Island in the Sun =1977=
TTITLE8=Danke Schön =1966=
TTITLE9=Strangers in the Night =1967=
TTITLE10=A Swingin' Safari =1967=
TTITLE11=Sweet Caroline =1970=
TTITLE12=Time To Dream =1973=
TTITLE13=The Way We Were =1976=
TTITLE14=Rhinestone Cowboy =1976=
TTITLE15=Red Roses for A Blue Lady =1966=
TTITLE16=Bye Bye Blues =1969=
TTITLE17=Snowbird =1971=
TTITLE18=Theme from Shaft =1972=
TTITLE19=Never My Love =1972=
TTITLE20=Headin' Home =1970=
TTITLE21=Raindrops Keep Fallin' On My Head =1970=
EXTD=
EXTT0=
EXTT1=
EXTT2=
EXTT3=
EXTT4=
EXTT5=
EXTT6=
EXTT7=
EXTT8=
EXTT9=
EXTT10=
EXTT11=
EXTT12=
EXTT13=
EXTT14=
EXTT15=
EXTT16=
EXTT17=
EXTT18=
EXTT19=
EXTT20=
EXTT21=
PLAYORDER=
